<svg xmlns="http://www.w3.org/2000/svg" viewBox="0 0 32 32" fill="none">
  <rect width="32" height="32" rx="6" fill="#3b82f6"/>
  <path d="M8.5 24V8.5h4.2c1.4 0 2.5.3 3.4 1 .9.6 1.3 1.5 1.3 2.6 0 .7-.2 1.3-.5 1.8-.3.5-.8.9-1.4 1.1v.1c.7.2 1.3.6 1.7 1.2.4.6.6 1.3.6 2.1 0 1.2-.4 2.2-1.3 2.8-.9.7-2.1 1-3.6 1H8.5zm2.8-9.2h1.2c.6 0 1-.1 1.3-.4.3-.3.4-.7.4-1.1 0-.5-.1-.8-.4-1.1-.3-.3-.7-.4-1.3-.4h-1.2v3zm0 2.2v4.2h1.5c.6 0 1.1-.2 1.4-.5.3-.3.5-.8.5-1.3 0-1.1-.6-1.7-1.9-1.7l-1.5.3z" fill="white"/>
  <circle cx="23" cy="12" r="3" fill="#10b981"/>
  <path d="M21 20h4l-2-6-2 6z" fill="#f59e0b"/>
</svg>